# This file uses centimeters as units for non-parametric coordinates.

mtllib PipeConsole2.mtl
g default
v -0.350168 -0.474992 0.106163
v -0.295334 -0.497709 0.104425
v -0.296912 -0.476313 0.161402
v -0.298329 -0.423408 0.188082
v -0.351059 -0.421878 0.165375
v -0.372881 -0.420162 0.110540
v 0.350168 -0.474992 0.106163
v 0.372881 -0.420162 0.110540
v 0.350166 -0.420212 0.165556
v 0.295334 -0.420423 0.188327
v 0.295333 -0.475443 0.161461
v 0.295334 -0.497709 0.104425
v -0.350168 0.383292 0.227218
v -0.372881 0.383256 0.172414
v -0.372881 0.329462 0.171190
v -0.372881 0.273588 0.167555
v -0.350182 0.273688 0.222616
v -0.295382 0.273790 0.245423
v -0.295277 0.328482 0.248793
v -0.295334 0.383332 0.249918
v 0.350168 0.383292 0.227218
v 0.295334 0.383332 0.249918
v 0.295359 0.328506 0.248794
v 0.295381 0.273790 0.245423
v 0.350181 0.273686 0.222614
v 0.372881 0.273585 0.167550
v 0.372881 0.329477 0.171188
v 0.372881 0.383256 0.172414
v -0.350168 0.383287 -0.179154
v -0.295334 0.383286 -0.201867
v -0.295334 0.328452 -0.201867
v -0.295334 0.273618 -0.201867
v -0.350168 0.273620 -0.179154
v -0.372881 0.273618 -0.124320
v -0.372881 0.328452 -0.124320
v -0.372881 0.383286 -0.124320
v 0.350168 0.383287 -0.179154
v 0.372881 0.383286 -0.124320
v 0.372881 0.328452 -0.124320
v 0.372881 0.273618 -0.124320
v 0.350168 0.273620 -0.179154
v 0.295334 0.273618 -0.201867
v 0.295334 0.328452 -0.201867
v 0.295334 0.383286 -0.201867
v -0.350168 -0.474996 -0.124320
v -0.372881 -0.420162 -0.124320
v -0.350168 -0.420162 -0.179154
v -0.295334 -0.420162 -0.201867
v -0.295334 -0.474996 -0.179154
v -0.295334 -0.497709 -0.124320
v 0.350168 -0.474996 -0.124320
v 0.295334 -0.497709 -0.124320
v 0.295334 -0.474996 -0.179154
v 0.295334 -0.420162 -0.201867
v 0.350168 -0.420162 -0.179154
v 0.372881 -0.420162 -0.124320
v -0.350168 0.810908 0.172370
v -0.372881 0.756075 0.172372
v -0.350168 0.756075 0.227205
v -0.295334 0.756075 0.249918
v -0.295334 0.810908 0.227205
v -0.295334 0.833621 0.172372
v 0.350168 0.810908 0.172370
v 0.295334 0.833621 0.172372
v 0.295334 0.810908 0.227205
v 0.295334 0.756075 0.249918
v 0.350168 0.756075 0.227205
v 0.372881 0.756075 0.172372
v 0.295334 0.810908 -0.179154
v 0.295334 0.833621 -0.124320
v 0.350168 0.810908 -0.124320
v 0.372881 0.756075 -0.124320
v 0.350168 0.756075 -0.179154
v 0.295334 0.756075 -0.201867
v -0.350168 0.810908 -0.124320
v -0.295334 0.833621 -0.124320
v -0.295334 0.810908 -0.179154
v -0.295334 0.756075 -0.201867
v -0.350168 0.756075 -0.179154
v -0.372881 0.756075 -0.124320
v -0.340760 -0.465867 0.151961
v 0.340090 -0.465174 0.152036
v -0.350159 0.328886 0.226064
v 0.350175 0.328906 0.226064
v -0.350168 0.328425 -0.179154
v 0.350168 0.328425 -0.179154
v -0.340090 -0.464918 -0.169076
v 0.340090 -0.464918 -0.169076
v -0.340090 0.800831 0.217127
v 0.340090 0.800831 0.217127
v 0.340090 0.800830 -0.169076
v -0.340090 0.800830 -0.169076
vt 0.400996 0.949493
vt 0.399992 0.022484
vt 0.599004 0.949493
vt 0.671524 0.023466
vt 0.375000 0.292888
vt 0.400980 0.233459
vt 0.599020 0.233459
vt 0.668083 0.233397
vt 0.375000 0.457089
vt 0.400996 0.500000
vt 0.175507 0.023466
vt 0.400996 0.516593
vt 0.599004 0.500000
vt 0.829593 0.233407
vt 0.824493 0.023466
vt 0.599004 0.800507
vt 0.400996 0.726534
vt 0.599004 0.726534
vt 0.375000 0.457089
vt 0.400996 0.250000
vt 0.599004 0.250000
vt 0.625000 0.292911
vt 0.625000 0.457089
vt 0.400996 0.457089
vt 0.599004 0.500000
vt 0.400996 0.500000
vt 0.599004 0.023387
vt 0.400996 0.292911
vt 0.599004 0.292911
vt 0.599004 0.457089
vt 0.599004 0.516593
vt 0.400996 0.800507
vt 0.328476 0.023466
vt 0.331920 0.233398
vt 0.170407 0.233407
vt 0.400996 0.250000
vt 0.599004 0.250000
vt 0.625000 0.292888
vt 0.625000 0.457089
vt 0.375000 0.292911
vt 0.375000 0.964071
vt 0.339071 -0.000000
vt 0.392453 -0.000000
vt 0.392453 1.000000
vt 0.373041 0.022426
vt 0.661028 -0.000000
vt 0.625000 0.963972
vt 0.626800 0.022954
vt 0.607260 1.000000
vt 0.607260 -0.000000
vt 0.386416 0.262289
vt 0.340536 0.250000
vt 0.375000 0.284464
vt 0.373716 0.234091
vt 0.400914 0.242183
vt 0.613585 0.262287
vt 0.599112 0.242187
vt 0.626241 0.234069
vt 0.625000 0.284464
vt 0.659464 0.250000
vt 0.386363 0.487573
vt 0.400852 0.507873
vt 0.125000 0.232854
vt 0.375000 0.517146
vt 0.375000 0.465562
vt 0.159438 0.250000
vt 0.613637 0.487573
vt 0.840562 0.250000
vt 0.625000 0.465562
vt 0.625000 0.517146
vt 0.875000 0.232854
vt 0.599148 0.507873
vt 0.160199 -0.000000
vt 0.375000 0.785199
vt 0.375000 0.734193
vt 0.125000 0.015807
vt 0.399510 0.753262
vt 0.625000 0.785183
vt 0.839817 -0.000000
vt 0.600490 0.753262
vt 0.875000 0.015807
vt 0.625000 0.734193
vt 0.386858 0.292124
vt 0.386572 0.261408
vt 0.399510 0.263160
vt 0.613142 0.292124
vt 0.600490 0.263160
vt 0.613428 0.261408
vt 0.600490 0.486840
vt 0.613142 0.457877
vt 0.613430 0.488586
vt 0.386858 0.457877
vt 0.399510 0.486840
vt 0.386570 0.488586
vt 0.375000 1.000000
vt 0.375000 0.000000
vt 0.625000 0.000000
vt 0.625000 1.000000
vt 0.375000 0.250000
vt 0.625000 0.250000
vt 0.375000 0.500000
vt 0.125000 0.250000
vt 0.875000 0.250000
vt 0.625000 0.500000
vt 0.125000 0.000000
vt 0.375000 0.750000
vt 0.625000 0.750000
vt 0.875000 0.000000
vt 0.375000 0.250000
vt 0.625000 0.250000
vt 0.625000 0.500000
vt 0.375000 0.500000
vn -0.033538 -0.996660 0.074463
vn -0.375083 -0.925576 0.051194
vn -0.376242 -0.925001 -0.053050
vn -0.033179 -0.996404 -0.077964
vn -0.923890 -0.380341 0.042040
vn -0.997871 -0.027513 0.059138
vn -0.997195 -0.025926 -0.070211
vn -0.925007 -0.376201 -0.053241
vn -0.035778 -0.109880 0.993301
vn -0.023534 -0.442526 0.896447
vn 0.026450 -0.441258 0.896991
vn 0.035686 -0.109916 0.993300
vn -0.018617 -0.934736 0.354855
vn 0.033885 -0.996662 0.074272
vn 0.019590 -0.934320 0.355896
vn -0.926936 -0.043594 0.372677
vn -0.926339 -0.029711 0.375518
vn -0.996741 -0.006399 0.080413
vn -0.387015 -0.097367 0.916918
vn -0.033226 -0.080345 0.996213
vn -0.389112 -0.073275 0.918271
vn 0.997814 -0.027717 0.059988
vn 0.923831 -0.380121 0.045208
vn 0.925007 -0.376202 -0.053241
vn 0.997195 -0.025927 -0.070212
vn 0.374509 -0.925592 0.054984
vn 0.033179 -0.996404 -0.077964
vn 0.376242 -0.925001 -0.053050
vn 0.379544 -0.098840 0.919879
vn 0.382885 -0.074506 0.920787
vn 0.033209 -0.080427 0.996207
vn 0.924135 -0.044464 0.379471
vn 0.996624 -0.006634 0.081830
vn 0.923970 -0.030725 0.381229
vn -0.997893 -0.000183 0.064874
vn -0.923848 -0.001026 0.382759
vn -0.924788 0.028781 0.379394
vn -0.996794 0.050529 0.062034
vn -0.382596 -0.002518 0.923912
vn -0.035090 -0.002629 0.999381
vn -0.033168 0.051153 0.998140
vn -0.378107 0.037830 0.924989
vn -0.997693 -0.002987 0.067826
vn -0.997898 -0.000000 -0.064809
vn -0.997500 -0.000000 -0.070664
vn -0.997914 0.000000 -0.064552
vn -0.034615 -0.040967 0.998561
vn 0.034677 -0.040966 0.998559
vn 0.035080 -0.002627 0.999381
vn 0.382622 -0.002472 0.923902
vn 0.378107 0.037830 0.924989
vn 0.033168 0.051153 0.998140
vn 0.923854 -0.001009 0.382744
vn 0.997894 -0.000180 0.064870
vn 0.996794 0.050529 0.062034
vn 0.924788 0.028781 0.379394
vn 0.997694 -0.002990 0.067805
vn 0.997898 -0.000000 -0.064809
vn 0.997914 -0.000000 -0.064553
vn 0.997500 0.000000 -0.070664
vn -0.035165 -0.000000 -0.999382
vn -0.382683 -0.000000 -0.923880
vn -0.378187 0.037811 -0.924957
vn -0.033175 0.051146 -0.998140
vn -0.923880 0.000000 -0.382682
vn -0.996794 0.050529 -0.062043
vn -0.924821 0.028751 -0.379313
vn -0.035164 0.000000 -0.999381
vn -0.035165 0.000000 -0.999382
vn 0.035165 -0.000000 -0.999382
vn 0.035164 0.000000 -0.999381
vn 0.035165 -0.000000 -0.999382
vn -0.923880 -0.000000 -0.382682
vn -0.924502 -0.016075 -0.380838
vn -0.382683 0.000000 -0.923880
vn -0.034041 -0.029187 -0.998994
vn -0.380204 -0.021416 -0.924655
vn 0.923880 -0.000000 -0.382682
vn 0.924821 0.028751 -0.379313
vn 0.996794 0.050529 -0.062043
vn 0.382683 -0.000000 -0.923880
vn 0.033175 0.051146 -0.998140
vn 0.378187 0.037811 -0.924957
vn 0.382683 0.000000 -0.923880
vn 0.380204 -0.021416 -0.924655
vn 0.034040 -0.029187 -0.998994
vn 0.923880 0.000000 -0.382682
vn 0.924502 -0.016075 -0.380838
vn -0.018984 -0.924588 -0.380495
vn 0.018984 -0.924588 -0.380495
vn -0.025316 -0.379734 -0.924749
vn 0.025316 -0.379734 -0.924749
vn -0.925001 0.377498 0.043215
vn -0.925002 0.377497 -0.043219
vn -0.377583 0.924997 0.042566
vn -0.033496 0.997455 0.062934
vn -0.033497 0.997455 -0.062934
vn -0.377582 0.924997 -0.042569
vn -0.018984 0.924588 0.380496
vn 0.018984 0.924588 0.380496
vn 0.033496 0.997455 0.062934
vn -0.025317 0.379735 0.924749
vn 0.025317 0.379735 0.924749
vn 0.377583 0.924997 0.042566
vn 0.377582 0.924997 -0.042569
vn 0.033497 0.997455 -0.062934
vn 0.925001 0.377498 0.043215
vn 0.925002 0.377497 -0.043219
vn 0.018984 0.924588 -0.380496
vn -0.018984 0.924588 -0.380496
vn 0.025316 0.379734 -0.924749
vn -0.025316 0.379734 -0.924749
vn -0.886874 -0.350472 0.301037
vn -0.325076 -0.899513 0.291894
vn -0.333892 -0.394594 0.856044
vn 0.320389 -0.894987 0.310401
vn 0.881517 -0.347052 0.320130
vn 0.320432 -0.382367 0.866671
vn -0.382817 -0.038751 0.923011
vn -0.923945 -0.016027 0.382189
vn 0.923997 -0.016028 0.382064
vn 0.383026 -0.038766 0.922924
vn -0.923880 -0.000000 -0.382681
vn -0.382683 0.000000 -0.923880
vn 0.382684 -0.000000 -0.923879
vn 0.923880 0.000000 -0.382682
vn -0.325268 -0.887920 -0.325268
vn -0.887919 -0.325269 -0.325269
vn -0.325269 -0.325269 -0.887919
vn 0.887919 -0.325269 -0.325269
vn 0.325268 -0.887920 -0.325268
vn 0.325269 -0.325269 -0.887919
vn -0.325277 0.887917 0.325268
vn -0.887918 0.325276 0.325265
vn -0.325276 0.325276 0.887914
vn 0.887918 0.325276 0.325265
vn 0.325276 0.887917 0.325267
vn 0.325276 0.325276 0.887914
vn 0.325270 0.325270 -0.887918
vn 0.325270 0.887918 -0.325271
vn 0.887919 0.325270 -0.325269
vn -0.887919 0.325270 -0.325269
vn -0.325270 0.887918 -0.325270
vn -0.325270 0.325270 -0.887918
s 1
g PipeConsole2
usemtl initialShadingGroup
f 2/1/1 1/41/2 45/74/3 50/32/4
s 2
f 1/42/5 6/33/6 46/11/7 45/73/8
s 3
f 4/2/9 3/43/10 11/50/11 10/27/12
s 1
f 3/44/13 2/1/1 12/3/14 11/49/15
s 2
f 6/33/6 5/45/16 17/54/17 16/34/18
s 3
f 5/45/19 4/2/9 18/6/20 17/54/21
s 4
f 8/4/22 7/46/23 51/79/24 56/15/25
s 1
f 7/47/26 12/3/14 52/16/27 51/78/28
s 3
f 10/27/12 9/48/29 25/58/30 24/7/31
s 4
f 9/48/32 8/4/22 26/8/33 25/58/34
s 2
f 14/5/35 13/51/36 59/84/37 58/40/38
s 3
f 13/51/39 20/36/40 60/20/41 59/84/42
s 2
f 16/34/18 15/52/43 35/66/44 34/35/45
f 15/53/43 14/5/35 36/9/46 35/65/44
s 3
f 20/36/40 19/55/47 23/57/48 22/37/49
f 19/55/47 18/6/20 24/7/31 23/57/48
f 22/37/49 21/56/50 67/88/51 66/21/52
s 4
f 21/56/53 28/38/54 68/22/55 67/88/56
f 28/38/54 27/59/57 39/69/58 38/39/59
f 27/60/57 26/8/33 40/14/60 39/68/58
s 8
f 30/10/61 29/61/62 79/94/63 78/26/64
s 2
f 29/61/65 36/9/46 80/19/66 79/94/67
s 8
f 32/12/68 31/62/69 43/72/70 42/31/71
f 31/62/69 30/10/61 44/13/72 43/72/70
s 2
f 34/35/45 33/63/73 47/76/74 46/11/7
s 8
f 33/64/75 32/12/68 48/17/76 47/75/77
s 4
f 38/39/59 37/67/78 73/91/79 72/23/80
s 8
f 37/67/81 44/13/72 74/25/82 73/91/83
f 42/31/71 41/70/84 55/82/85 54/18/86
s 4
f 41/71/87 40/14/60 56/15/25 55/81/88
s 1
f 50/32/4 49/77/89 53/80/90 52/16/27
s 8
f 49/77/91 48/17/76 54/18/86 53/80/92
s 2
f 58/40/38 57/83/93 75/92/94 80/19/66
s 10
f 57/83/95 62/28/96 76/24/97 75/92/98
f 62/28/96 61/85/99 65/87/100 64/29/101
s 3
f 61/85/102 60/20/41 66/21/52 65/87/103
s 10
f 64/29/101 63/86/104 71/90/105 70/30/106
s 4
f 63/86/107 68/22/55 72/23/80 71/90/108
s 10
f 70/30/106 69/89/109 77/93/110 76/24/97
s 8
f 69/89/111 74/25/82 78/26/64 77/93/112
s 3
f 4/2/9 10/27/12 24/7/31 18/6/20
s 10
f 62/28/96 64/29/101 70/30/106 76/24/97
s 8
f 32/12/68 42/31/71 54/18/86 48/17/76
s 1
f 50/32/4 52/16/27 12/3/14 2/1/1
s 4
f 8/4/22 56/15/25 40/14/60 26/8/33
s 2
f 46/11/7 6/33/6 16/34/18 34/35/45
s 3
f 20/36/40 22/37/49 66/21/52 60/20/41
s 4
f 28/38/54 38/39/59 72/23/80 68/22/55
s 8
f 44/13/72 30/10/61 78/26/64 74/25/82
s 2
f 36/9/46 14/5/35 58/40/38 80/19/66
f 5/45/16 6/33/6 1/42/5 81/96/113
s 1
f 1/41/2 2/1/1 3/44/13 81/95/114
s 3
f 3/43/10 4/2/9 5/45/19 81/96/115
s 1
f 11/49/15 12/3/14 7/47/26 82/98/116
s 4
f 7/46/23 8/4/22 9/48/32 82/97/117
s 3
f 9/48/29 10/27/12 11/50/11 82/97/118
f 19/55/47 20/36/40 13/51/39 83/99/119
s 2
f 13/51/36 14/5/35 15/53/43 83/99/120
f 15/52/43 16/34/18 17/54/17 83/99/120
s 3
f 17/54/21 18/6/20 19/55/47 83/99/119
s 4
f 27/59/57 28/38/54 21/56/53 84/100/121
s 3
f 21/56/50 22/37/49 23/57/48 84/100/122
f 23/57/48 24/7/31 25/58/30 84/100/122
s 4
f 25/58/34 26/8/33 27/60/57 84/100/121
s 2
f 35/65/44 36/9/46 29/61/65 85/101/123
s 8
f 29/61/62 30/10/61 31/62/69 85/101/124
f 31/62/69 32/12/68 33/64/75 85/101/124
s 2
f 33/63/73 34/35/45 35/66/44 85/102/123
s 8
f 43/72/70 44/13/72 37/67/81 86/104/125
s 4
f 37/67/78 38/39/59 39/69/58 86/104/126
f 39/68/58 40/14/60 41/71/87 86/103/126
s 8
f 41/70/84 42/31/71 43/72/70 86/104/125
s 1
f 49/77/89 50/32/4 45/74/3 87/106/127
s 2
f 45/73/8 46/11/7 47/76/74 87/105/128
s 8
f 47/75/77 48/17/76 49/77/91 87/106/129
s 4
f 55/81/88 56/15/25 51/79/24 88/108/130
s 1
f 51/78/28 52/16/27 53/80/90 88/107/131
s 8
f 53/80/92 54/18/86 55/82/85 88/107/132
s 10
f 61/85/99 62/28/96 57/83/95 89/109/133
s 2
f 57/83/93 58/40/38 59/84/37 89/109/134
s 3
f 59/84/42 60/20/41 61/85/102 89/109/135
s 4
f 67/88/56 68/22/55 63/86/107 90/110/136
s 10
f 63/86/104 64/29/101 65/87/100 90/110/137
s 3
f 65/87/103 66/21/52 67/88/51 90/110/138
s 8
f 73/91/83 74/25/82 69/89/111 91/111/139
s 10
f 69/89/109 70/30/106 71/90/105 91/111/140
s 4
f 71/90/108 72/23/80 73/91/79 91/111/141
s 2
f 79/94/67 80/19/66 75/92/94 92/112/142
s 10
f 75/92/98 76/24/97 77/93/110 92/112/143
s 8
f 77/93/112 78/26/64 79/94/63 92/112/144
