# This file uses centimeters as units for non-parametric coordinates.

mtllib Dart.mtl
g default
v 0.009228 0.015984 0.552762
v -0.009228 0.015984 0.552762
v -0.018456 0.000000 0.552762
v -0.009228 -0.015983 0.552762
v 0.009228 -0.015983 0.552762
v 0.018456 0.000000 0.552762
v -0.000000 0.000000 1.752422
v 0.184932 0.184932 -1.140897
v 0.000000 0.261534 -1.140897
v -0.184932 0.184932 -1.140897
v -0.261534 -0.000000 -1.140897
v -0.184932 -0.184932 -1.140897
v 0.000000 -0.261534 -1.140897
v 0.184932 -0.184932 -1.140897
v 0.261534 -0.000000 -1.140897
v 0.184932 0.184932 1.039491
v -0.000000 0.261534 1.039491
v -0.184932 0.184932 1.039491
v -0.261534 0.000000 1.039491
v -0.184932 -0.184932 1.039491
v -0.000000 -0.261534 1.039491
v 0.184932 -0.184932 1.039491
v 0.261534 0.000000 1.039491
v 0.167332 0.167332 -1.140897
v 0.000000 0.236643 -1.140897
v -0.167332 0.167332 -1.140897
v -0.236643 -0.000000 -1.140897
v -0.167332 -0.167332 -1.140897
v 0.000000 -0.236643 -1.140897
v 0.167332 -0.167332 -1.140897
v 0.236643 -0.000000 -1.140897
v 0.167332 0.167332 -1.427207
v 0.000000 0.236643 -1.427207
v -0.167332 0.167332 -1.427207
v -0.236643 -0.000000 -1.427207
v -0.167332 -0.167332 -1.427207
v 0.000000 -0.236643 -1.427207
v 0.167332 -0.167332 -1.427207
v 0.236643 -0.000000 -1.427207
v 0.178040 0.178040 -1.427207
v 0.000000 0.251787 -1.427207
v -0.178040 0.178040 -1.427207
v -0.251787 -0.000000 -1.427207
v -0.178040 -0.178040 -1.427207
v 0.000000 -0.251787 -1.427207
v 0.178040 -0.178040 -1.427207
v 0.251787 -0.000000 -1.427207
v 0.178040 0.178040 -1.510774
v 0.000000 0.251787 -1.510774
v -0.178040 0.178040 -1.510774
v -0.251787 -0.000000 -1.510774
v -0.178040 -0.178040 -1.510774
v 0.000000 -0.251787 -1.510774
v 0.178040 -0.178040 -1.510774
v 0.251787 -0.000000 -1.510774
v 0.174246 0.174246 1.039491
v -0.000000 0.246421 1.039491
v -0.174246 0.174246 1.039491
v -0.246421 0.000000 1.039491
v -0.174246 -0.174246 1.039491
v -0.000000 -0.246421 1.039491
v 0.174246 -0.174246 1.039491
v 0.246421 0.000000 1.039491
v 0.174246 0.174246 0.964789
v -0.000000 0.246421 0.964789
v -0.000000 0.000000 0.964789
v -0.174246 0.174246 0.964789
v -0.246421 0.000000 0.964789
v -0.174246 -0.174246 0.964789
v -0.000000 -0.246421 0.964789
v 0.174246 -0.174246 0.964789
v 0.246421 0.000000 0.964789
v 0.164860 0.164860 -1.510774
v 0.000000 0.233147 -1.510774
v -0.164860 0.164860 -1.510774
v -0.233147 -0.000000 -1.510774
v -0.164860 -0.164860 -1.510774
v 0.000000 -0.233147 -1.510774
v 0.164860 -0.164860 -1.510774
v 0.233147 -0.000000 -1.510774
v 0.164860 0.164860 -1.479403
v 0.000000 0.233147 -1.479403
v 0.000000 -0.000000 -1.479403
v -0.164860 0.164860 -1.479403
v -0.233147 -0.000000 -1.479403
v -0.164860 -0.164860 -1.479403
v 0.000000 -0.233147 -1.479403
v 0.164860 -0.164860 -1.479403
v 0.233147 -0.000000 -1.479403
vt 0.532026 0.398206
vt 0.526734 0.398206
vt 0.526734 0.000998
vt 0.521442 0.398206
vt 0.546913 0.000998
vt 0.552205 0.000998
vt 0.552205 0.398206
vt 0.557497 0.000998
vt 0.250929 0.722925
vt 0.189698 0.722925
vt 0.189698 0.000998
vt 0.250929 0.000998
vt 0.128467 0.722925
vt 0.128467 0.000998
vt 0.383173 0.000998
vt 0.444404 0.000998
vt 0.444404 0.722925
vt 0.383173 0.722925
vt 0.505635 0.000998
vt 0.505635 0.722925
vt 0.195974 0.899953
vt 0.195974 0.955357
vt 0.101177 0.955357
vt 0.101177 0.899953
vt 0.195974 0.844550
vt 0.101177 0.844550
vt 0.301303 0.936445
vt 0.301303 0.881042
vt 0.396101 0.881042
vt 0.396101 0.936445
vt 0.301303 0.991849
vt 0.396101 0.991849
vt 0.234539 0.783738
vt 0.234539 0.842687
vt 0.206870 0.842687
vt 0.206870 0.783738
vt 0.234539 0.724788
vt 0.206870 0.724788
vt 0.143803 0.783738
vt 0.143803 0.724788
vt 0.171473 0.724788
vt 0.171473 0.783738
vt 0.143803 0.842687
vt 0.171473 0.842687
vt 0.086608 0.840174
vt 0.086608 0.782481
vt 0.111341 0.782481
vt 0.111341 0.840174
vt 0.086608 0.724788
vt 0.111341 0.724788
vt 0.054146 0.724788
vt 0.054146 0.782481
vt 0.029412 0.782481
vt 0.029412 0.724788
vt 0.054146 0.840174
vt 0.029412 0.840174
vt 0.426308 0.944417
vt 0.426308 0.999002
vt 0.415921 0.999002
vt 0.415921 0.944417
vt 0.426308 0.889832
vt 0.415921 0.889832
vt 0.445030 0.944417
vt 0.445030 0.889832
vt 0.455417 0.889832
vt 0.455417 0.944417
vt 0.445030 0.999002
vt 0.455417 0.999002
vt 0.516637 0.398206
vt 0.510526 0.398206
vt 0.513581 0.000998
vt 0.535997 0.000998
vt 0.542107 0.000998
vt 0.539052 0.398206
vt 0.123394 0.722925
vt 0.062163 0.722925
vt 0.062163 0.000998
vt 0.123394 0.000998
vt 0.000932 0.722925
vt 0.000932 0.000998
vt 0.255820 0.000998
vt 0.317051 0.000998
vt 0.317051 0.722925
vt 0.255820 0.722925
vt 0.378282 0.000998
vt 0.378282 0.722925
vt 0.000932 0.897441
vt 0.000932 0.842037
vt 0.095729 0.842037
vt 0.095729 0.897441
vt 0.000932 0.952844
vt 0.095729 0.952844
vt 0.296037 0.936445
vt 0.296037 0.991849
vt 0.201240 0.991849
vt 0.201240 0.936445
vt 0.296037 0.881041
vt 0.201240 0.881041
vt 0.238403 0.783738
vt 0.238403 0.724788
vt 0.266072 0.724788
vt 0.266072 0.783738
vt 0.238403 0.842687
vt 0.266072 0.842687
vt 0.203006 0.783737
vt 0.203006 0.842687
vt 0.175337 0.842687
vt 0.175337 0.783737
vt 0.203006 0.724788
vt 0.175337 0.724788
vt 0.139939 0.724788
vt 0.139939 0.782481
vt 0.115206 0.782481
vt 0.115206 0.724788
vt 0.139939 0.840174
vt 0.115206 0.840174
vt 0.058010 0.840174
vt 0.058010 0.782481
vt 0.082744 0.782481
vt 0.082744 0.840174
vt 0.058010 0.724788
vt 0.082744 0.724788
vt 0.401366 0.935627
vt 0.401366 0.881041
vt 0.411753 0.881041
vt 0.411753 0.935627
vt 0.401366 0.990212
vt 0.411753 0.990212
vt 0.440862 0.944417
vt 0.440862 0.999002
vt 0.430475 0.999002
vt 0.430475 0.944417
vt 0.440862 0.889832
vt 0.430475 0.889832
vt 0.269937 0.801983
vt 0.292547 0.747398
vt 0.347132 0.801983
vt 0.347132 0.724788
vt 0.292547 0.856569
vt 0.401717 0.747398
vt 0.347132 0.879178
vt 0.424327 0.801983
vt 0.401717 0.856569
vt 0.567474 0.748685
vt 0.591372 0.806378
vt 0.509781 0.806378
vt 0.567474 0.864071
vt 0.509781 0.724788
vt 0.509781 0.887969
vt 0.452088 0.748685
vt 0.452088 0.864071
vt 0.428191 0.806378
vt 0.648061 0.000998
vt 0.709292 0.026361
vt 0.703465 0.032189
vt 0.648061 0.009239
vt 0.734655 0.087592
vt 0.726414 0.087592
vt 0.586830 0.026361
vt 0.592658 0.032189
vt 0.709292 0.148823
vt 0.703465 0.142996
vt 0.561467 0.087592
vt 0.569709 0.087592
vt 0.648061 0.174186
vt 0.648061 0.165945
vt 0.586830 0.148823
vt 0.592658 0.142996
vt 0.849200 0.337768
vt 0.904604 0.314819
vt 0.908149 0.318365
vt 0.849200 0.342782
vt 0.927553 0.259416
vt 0.932567 0.259416
vt 0.793797 0.314819
vt 0.790251 0.318365
vt 0.904604 0.204012
vt 0.908149 0.200467
vt 0.770848 0.259416
vt 0.765833 0.259416
vt 0.849200 0.181063
vt 0.849200 0.176049
vt 0.793797 0.204012
vt 0.790251 0.200467
vt 0.887587 0.148823
vt 0.826356 0.174186
vt 0.826356 0.169182
vt 0.884049 0.145285
vt 0.765124 0.148823
vt 0.768663 0.145285
vt 0.912950 0.087592
vt 0.907946 0.087592
vt 0.739762 0.087592
vt 0.744765 0.087592
vt 0.887587 0.026361
vt 0.884049 0.029899
vt 0.765124 0.026361
vt 0.768663 0.029899
vt 0.826356 0.000998
vt 0.826356 0.006002
vt 0.678603 0.176049
vt 0.737552 0.200467
vt 0.733188 0.204831
vt 0.678603 0.182221
vt 0.761969 0.259416
vt 0.755798 0.259416
vt 0.619653 0.200467
vt 0.624017 0.204831
vt 0.737552 0.318365
vt 0.733188 0.314001
vt 0.595236 0.259416
vt 0.601407 0.259416
vt 0.678603 0.342783
vt 0.678603 0.336611
vt 0.619653 0.318365
vt 0.624017 0.314001
vn 0.499941 0.865923 0.015383
vn -0.499941 0.865923 0.015383
vn 0.000000 0.000000 1.000000
vn -0.999882 0.000000 0.015383
vn -0.499941 -0.865923 0.015383
vn 0.499941 -0.865923 0.015383
vn 0.999882 0.000000 0.015383
vn 0.707107 0.707107 0.000000
vn 0.000000 1.000000 -0.000000
vn -0.000000 1.000000 -0.000000
vn 0.707107 0.707107 0.000000
vn -0.707107 0.707107 -0.000000
vn -0.707107 0.707107 -0.000000
vn -1.000000 0.000000 -0.000000
vn -1.000000 0.000000 -0.000000
vn -0.707107 -0.707107 -0.000000
vn -0.707107 -0.707107 -0.000000
vn 0.000000 -1.000000 0.000000
vn -0.000000 -1.000000 0.000000
vn 0.707107 -0.707107 0.000000
vn 0.707107 -0.707107 0.000000
vn 1.000000 0.000000 0.000000
vn 1.000000 0.000000 0.000000
vn 0.000000 0.000000 -1.000000
vn 0.000000 0.000000 -1.000000
vn 0.000000 0.000000 -1.000000
vn 0.000000 0.000000 -1.000000
vn 0.000000 0.000000 -1.000000
vn 0.000000 0.000000 -1.000000
vn 0.000000 0.000000 -1.000000
vn 0.000000 0.000000 -1.000000
vn 0.000000 0.000000 -1.000000
vn 0.000000 0.000000 1.000000
vn 0.000000 0.000000 1.000000
vn 0.000000 0.000000 1.000000
vn 0.000000 0.000000 1.000000
vn 0.000000 0.000000 1.000000
vn 0.000000 0.000000 1.000000
vn 0.000000 0.000000 1.000000
vn 0.000000 0.000000 1.000000
vn 0.000000 0.000000 1.000000
vn 0.000000 0.000000 -1.000000
vn 0.000001 0.000000 -1.000000
vn 0.000001 0.000000 -1.000000
vn 0.000000 0.000000 -1.000000
vn -0.000000 0.000000 -1.000000
vn -0.000000 0.000000 -1.000000
vn 0.000000 0.000000 -1.000000
vn 0.000000 0.000000 -1.000000
vn 0.000000 0.000000 -1.000000
vn 0.000000 0.000000 -1.000000
vn 0.000000 0.000000 -1.000000
vn 0.000000 0.000000 -1.000000
vn 0.000000 0.000000 -1.000000
vn 0.000000 0.000000 -1.000000
vn 0.000000 0.000000 -1.000000
vn 0.000000 0.000000 -1.000000
vn 0.000000 1.000000 0.000000
vn 0.707107 0.707107 -0.000000
vn 0.707107 0.707107 -0.000000
vn 0.000000 1.000000 0.000000
vn -0.707107 0.707107 0.000000
vn -0.707107 0.707107 0.000000
vn -1.000000 -0.000000 0.000000
vn -1.000000 -0.000000 0.000000
vn -0.707107 -0.707107 0.000000
vn -0.707107 -0.707107 0.000000
vn -0.000000 -1.000000 0.000000
vn -0.000000 -1.000000 0.000000
vn 0.707107 -0.707107 -0.000000
vn 0.707107 -0.707107 -0.000000
vn 1.000000 0.000000 -0.000000
vn 1.000000 0.000000 -0.000000
vn -0.000001 0.000000 1.000000
vn -0.000001 0.000000 1.000000
vn -0.000001 0.000000 1.000000
vn -0.000001 0.000000 1.000000
vn 0.000000 0.000000 1.000000
vn 0.000000 0.000000 1.000000
vn 0.000000 0.000000 1.000000
vn 0.000000 0.000000 1.000000
vn 0.000001 0.000000 1.000000
vn 0.000001 0.000000 1.000000
vn 0.000000 0.000000 1.000000
vn 0.000000 0.000000 1.000000
vn -0.000000 0.000000 1.000000
vn -0.000000 0.000000 1.000000
vn 0.000000 0.000000 1.000000
vn 0.000000 0.000000 1.000000
vn -0.000000 1.000000 0.000000
vn 0.707106 0.707107 0.000000
vn 0.707106 0.707107 0.000000
vn -0.000000 1.000000 0.000000
vn -0.707106 0.707107 0.000000
vn -0.707106 0.707107 0.000000
vn -1.000000 0.000000 0.000000
vn -1.000000 0.000000 0.000000
vn -0.707107 -0.707107 0.000000
vn -0.707107 -0.707107 0.000000
vn 0.000000 -1.000000 0.000000
vn 0.000000 -1.000000 0.000000
vn 0.707107 -0.707107 0.000000
vn 0.707107 -0.707107 0.000000
vn 1.000000 0.000000 0.000000
vn 1.000000 0.000000 0.000000
vn -0.000001 0.000000 1.000000
vn 0.000000 0.000000 1.000000
vn 0.000000 0.000000 1.000000
vn -0.000001 0.000000 1.000000
vn 0.000000 0.000000 1.000000
vn 0.000000 0.000000 1.000000
vn -0.000001 0.000000 1.000000
vn -0.000001 0.000000 1.000000
vn 0.000001 0.000000 1.000000
vn 0.000001 0.000000 1.000000
vn -0.000000 0.000000 1.000000
vn -0.000000 0.000000 1.000000
vn -0.000000 0.000000 1.000000
vn -0.000000 0.000000 1.000000
vn 0.000001 0.000000 1.000000
vn 0.000001 0.000000 1.000000
vn -0.707107 -0.707107 0.000000
vn 0.000000 -1.000000 0.000000
vn 0.000000 -1.000000 0.000000
vn -0.707107 -0.707107 0.000000
vn 0.707107 -0.707107 0.000000
vn 0.707107 -0.707107 0.000000
vn 1.000000 0.000000 0.000000
vn 1.000000 0.000000 0.000000
vn 0.707107 0.707107 0.000000
vn 0.707107 0.707107 0.000000
vn 0.000000 1.000000 0.000000
vn 0.000000 1.000000 0.000000
vn -0.707107 0.707107 0.000000
vn -0.707107 0.707107 0.000000
vn -1.000000 -0.000000 0.000000
vn -1.000000 -0.000000 0.000000
vn -0.000000 0.000000 -1.000000
vn 0.000002 0.000000 -1.000000
vn 0.000002 0.000000 -1.000000
vn -0.000000 0.000000 -1.000000
vn -0.000001 0.000000 -1.000000
vn -0.000001 0.000000 -1.000000
vn -0.000002 0.000000 -1.000000
vn -0.000002 0.000000 -1.000000
vn 0.000000 0.000000 -1.000000
vn -0.000000 0.000000 -1.000000
vn -0.000001 0.000000 -1.000000
vn -0.000001 0.000000 -1.000000
vn -0.000001 0.000000 -1.000000
vn -0.000001 0.000000 -1.000000
vn 0.000004 0.000000 -1.000000
vn 0.000004 0.000000 -1.000000
vn 0.000000 -1.000000 0.000000
vn -0.707107 -0.707107 0.000000
vn -0.707107 -0.707107 0.000000
vn 0.000000 -1.000000 0.000000
vn 0.707107 -0.707107 0.000000
vn 0.707107 -0.707107 0.000000
vn 1.000000 0.000000 0.000000
vn 1.000000 0.000000 0.000000
vn 0.707107 0.707106 0.000000
vn 0.707107 0.707106 0.000000
vn 0.000001 1.000000 0.000000
vn 0.000001 1.000000 0.000000
vn -0.707107 0.707107 0.000000
vn -0.707107 0.707107 0.000000
vn -1.000000 -0.000000 0.000000
vn -1.000000 -0.000000 0.000000
s 1
g Dart
usemtl lambert2SG
f 1/69/1 2/70/2 7/71/3
f 2/1/2 3/2/4 7/3/3
f 3/2/4 4/4/5 7/3/3
f 4/72/5 5/73/6 7/74/3
f 5/5/6 6/6/7 7/7/3
f 6/6/7 1/8/1 7/7/3
s 2
f 8/75/8 9/76/9 17/77/10 16/78/11
f 9/76/9 10/79/12 18/80/13 17/77/10
f 10/9/12 11/10/14 19/11/15 18/12/13
f 11/10/14 12/13/16 20/14/17 19/11/15
f 12/81/16 13/82/18 21/83/19 20/84/17
f 13/82/18 14/85/20 22/86/21 21/83/19
f 14/15/20 15/16/22 23/17/23 22/18/21
f 15/16/22 8/19/8 16/20/11 23/17/23
s 3
f 82/135/24 81/136/25 83/137/26
f 84/139/27 82/135/24 83/137/26
f 85/141/28 84/139/27 83/137/26
f 86/143/29 85/141/28 83/137/26
f 87/142/30 86/143/29 83/137/26
f 88/140/31 87/142/30 83/137/26
f 89/138/32 88/140/31 83/137/26
f 81/136/25 89/138/32 83/137/26
s 4
f 64/144/33 65/145/34 66/146/35
f 65/145/34 67/147/36 66/146/35
f 67/147/36 68/149/37 66/146/35
f 68/149/37 69/151/38 66/146/35
f 69/151/38 70/152/39 66/146/35
f 70/152/39 71/150/40 66/146/35
f 71/150/40 72/148/41 66/146/35
f 72/148/41 64/144/33 66/146/35
s 5
f 9/153/42 8/154/43 24/155/44 25/156/45
f 10/159/46 9/153/42 25/156/45 26/160/47
f 11/163/48 10/159/46 26/160/47 27/164/49
f 12/167/50 11/163/48 27/164/49 28/168/51
f 13/165/52 12/167/50 28/168/51 29/166/53
f 14/161/54 13/165/52 29/166/53 30/162/55
f 15/157/56 14/161/54 30/162/55 31/158/57
f 8/154/43 15/157/56 31/158/57 24/155/44
s 6
f 25/87/58 24/88/59 32/89/60 33/90/61
f 26/91/62 25/87/58 33/90/61 34/92/63
f 27/21/64 26/22/62 34/23/63 35/24/65
f 28/25/66 27/21/64 35/24/65 36/26/67
f 29/93/68 28/94/66 36/95/67 37/96/69
f 30/97/70 29/93/68 37/96/69 38/98/71
f 31/27/72 30/28/70 38/29/71 39/30/73
f 24/31/59 31/27/72 39/30/73 32/32/60
s 7
f 33/169/74 32/170/75 40/171/76 41/172/77
f 34/175/78 33/169/74 41/172/77 42/176/79
f 35/179/80 34/175/78 42/176/79 43/180/81
f 36/183/82 35/179/80 43/180/81 44/184/83
f 37/181/84 36/183/82 44/184/83 45/182/85
f 38/177/86 37/181/84 45/182/85 46/178/87
f 39/173/88 38/177/86 46/178/87 47/174/89
f 32/170/75 39/173/88 47/174/89 40/171/76
s 8
f 41/99/90 40/100/91 48/101/92 49/102/93
f 42/103/94 41/99/90 49/102/93 50/104/95
f 43/33/96 42/34/94 50/35/95 51/36/97
f 44/37/98 43/33/96 51/36/97 52/38/99
f 45/105/100 44/106/98 52/107/99 53/108/101
f 46/109/102 45/105/100 53/108/101 54/110/103
f 47/39/104 46/40/102 54/41/103 55/42/105
f 40/43/91 47/39/104 55/42/105 48/44/92
s 9
f 16/185/106 17/186/107 57/187/108 56/188/109
f 17/186/107 18/189/110 58/190/111 57/187/108
f 18/189/110 19/193/112 59/194/113 58/190/111
f 19/193/112 20/197/114 60/198/115 59/194/113
f 20/197/114 21/199/116 61/200/117 60/198/115
f 21/199/116 22/195/118 62/196/119 61/200/117
f 22/195/118 23/191/120 63/192/121 62/196/119
f 23/191/120 16/185/106 56/188/109 63/192/121
s 10
f 56/111/122 57/112/123 65/113/124 64/114/125
f 57/112/123 58/115/126 67/116/127 65/113/124
f 58/45/126 59/46/128 68/47/129 67/48/127
f 59/46/128 60/49/130 69/50/131 68/47/129
f 60/117/130 61/118/132 70/119/133 69/120/131
f 61/118/132 62/121/134 71/122/135 70/119/133
f 62/51/134 63/52/136 72/53/137 71/54/135
f 63/52/136 56/55/122 64/56/125 72/53/137
s 11
f 49/201/138 48/202/139 73/203/140 74/204/141
f 50/207/142 49/201/138 74/204/141 75/208/143
f 51/211/144 50/207/142 75/208/143 76/212/145
f 52/215/146 51/211/144 76/212/145 77/216/147
f 53/213/148 52/215/146 77/216/147 78/214/149
f 54/209/150 53/213/148 78/214/149 79/210/151
f 55/205/152 54/209/150 79/210/151 80/206/153
f 48/202/139 55/205/152 80/206/153 73/203/140
s 12
f 74/123/154 73/124/155 81/125/156 82/126/157
f 75/127/158 74/123/154 82/126/157 84/128/159
f 76/57/160 75/58/158 84/59/159 85/60/161
f 77/61/162 76/57/160 85/60/161 86/62/163
f 78/129/164 77/130/162 86/131/163 87/132/165
f 79/133/166 78/129/164 87/132/165 88/134/167
f 80/63/168 79/64/166 88/65/167 89/66/169
f 73/67/155 80/63/168 89/66/169 81/68/156
