# This file uses centimeters as units for non-parametric coordinates.

mtllib gun_magazine.mtl
g default
v -0.000000 -3.166615 -0.225289
v 0.277988 -3.166615 -0.225289
v 0.000000 2.699708 1.690178
v 0.277988 2.699708 1.690178
v 0.000000 2.699708 0.009190
v 0.277988 2.699708 0.009190
v 0.000000 -3.166615 -1.906276
v 0.277988 -3.166615 -1.906276
v 0.000000 -3.250106 -1.906276
v 0.277988 -3.250106 -1.906276
v 0.277988 -3.250106 -0.225289
v 0.000000 -3.250106 -0.225289
v 0.000000 -3.166615 -2.121069
v 0.277988 -3.166615 -2.121069
v 0.277988 -3.250106 -2.121069
v 0.000000 -3.250106 -2.121069
v 0.000000 -3.166615 -0.010495
v 0.277988 -3.166615 -0.010495
v 0.000000 -3.250106 -0.010495
v 0.277988 -3.250106 -0.010495
v 0.370782 -3.166615 -1.906276
v 0.370782 -3.166615 -0.225289
v 0.370782 -3.250106 -0.225289
v 0.370782 -3.250106 -1.906276
v 0.370782 -3.250106 -2.121069
v 0.370782 -3.166615 -2.121069
v 0.370782 -3.166615 -0.010495
v 0.370782 -3.250106 -0.010495
v 0.277988 -3.020103 -1.688033
v 0.277988 -3.020103 -0.347854
v 0.277988 2.553196 0.106035
v 0.277988 2.553196 1.497655
v 0.252018 -3.020103 -1.688033
v 0.252018 -3.020103 -0.347854
v 0.252018 2.553196 0.106035
v 0.252018 2.553196 1.497655
v -0.277988 -3.166615 -0.225289
v -0.277988 2.699708 1.690178
v -0.277988 2.699708 0.009190
v -0.277988 -3.166615 -1.906276
v -0.277988 -3.250106 -1.906276
v -0.277988 -3.250106 -0.225289
v -0.277988 -3.166615 -2.121069
v -0.277988 -3.250106 -2.121069
v -0.277988 -3.166615 -0.010495
v -0.277988 -3.250106 -0.010495
v -0.370782 -3.166615 -1.906276
v -0.370782 -3.166615 -0.225289
v -0.370782 -3.250106 -0.225289
v -0.370782 -3.250106 -1.906276
v -0.370782 -3.250106 -2.121069
v -0.370782 -3.166615 -2.121069
v -0.370782 -3.166615 -0.010495
v -0.370782 -3.250106 -0.010495
v -0.277988 -3.020103 -1.688033
v -0.277988 -3.020103 -0.347854
v -0.277988 2.553196 0.106035
v -0.277988 2.553196 1.497655
v -0.252018 -3.020103 -1.688033
v -0.252018 -3.020103 -0.347854
v -0.252018 2.553196 0.106035
v -0.252018 2.553196 1.497655
vt 0.791733 0.513666
vt 0.908439 0.513666
vt 0.752208 0.999002
vt 0.631022 0.999002
vt 0.253632 0.532371
vt 0.253632 0.678755
vt 0.246361 0.678755
vt 0.246361 0.532371
vt 0.253632 0.697460
vt 0.246361 0.697460
vt 0.246361 0.513666
vt 0.253632 0.513666
vt 0.274224 0.000998
vt 0.420608 0.000998
vt 0.401603 0.013757
vt 0.284897 0.013757
vt 0.253805 0.511851
vt 0.245371 0.499093
vt 0.107420 0.511851
vt 0.124186 0.499093
vt 0.454495 0.513666
vt 0.615206 0.999002
vt 0.494021 0.999002
vt 0.337789 0.513666
vt 0.174255 0.678755
vt 0.166985 0.678755
vt 0.166985 0.532371
vt 0.174255 0.532371
vt 0.174255 0.697460
vt 0.166985 0.697460
vt 0.166985 0.513666
vt 0.174255 0.513666
vt 0.571039 0.000998
vt 0.560366 0.013757
vt 0.443660 0.013757
vt 0.424655 0.000998
vt 0.737842 0.511851
vt 0.721077 0.499093
vt 0.599892 0.499093
vt 0.591458 0.511851
vt 0.139013 0.513666
vt 0.163220 0.513666
vt 0.163220 0.660050
vt 0.139013 0.660050
vt 0.114805 0.660050
vt 0.114805 0.513666
vt 0.289685 0.532371
vt 0.313892 0.532371
vt 0.313892 0.678755
vt 0.289685 0.678755
vt 0.289685 0.513666
vt 0.313892 0.513666
vt 0.321973 0.532371
vt 0.321973 0.678755
vt 0.313892 0.697460
vt 0.289685 0.697460
vt 0.265477 0.678755
vt 0.265477 0.532371
vt 0.265477 0.513666
vt 0.321973 0.513666
vt 0.321973 0.697460
vt 0.265477 0.697460
vt 0.257396 0.678755
vt 0.257396 0.532371
vt 0.257396 0.513666
vt 0.257396 0.697460
vt 0.210308 0.678755
vt 0.234516 0.678755
vt 0.234516 0.697460
vt 0.210308 0.697460
vt 0.242597 0.678755
vt 0.242597 0.697460
vt 0.186100 0.697460
vt 0.186100 0.678755
vt 0.234516 0.532371
vt 0.242597 0.532371
vt 0.178020 0.697460
vt 0.178020 0.678755
vt 0.234516 0.513666
vt 0.242597 0.513666
vt 0.178020 0.532371
vt 0.186100 0.532371
vt 0.210308 0.532371
vt 0.210308 0.513666
vt 0.178020 0.513666
vt 0.186100 0.513666
vt 0.098989 0.513666
vt 0.098989 0.630372
vt 0.096727 0.630372
vt 0.096727 0.513666
vt 0.111040 0.513666
vt 0.111040 0.634851
vt 0.108779 0.634851
vt 0.108779 0.513666
vt 0.090701 0.513666
vt 0.092963 0.513666
vt 0.092963 0.630372
vt 0.090701 0.630372
vt 0.102753 0.513666
vt 0.105015 0.513666
vt 0.105015 0.634852
vt 0.102753 0.634852
vt 0.025115 0.000998
vt 0.049323 0.000998
vt 0.049323 0.511851
vt 0.025115 0.511851
vt 0.000908 0.511851
vt 0.000908 0.000998
vt 0.078460 0.000998
vt 0.102668 0.000998
vt 0.102668 0.511851
vt 0.078460 0.511851
vt 0.054253 0.511851
vt 0.054253 0.000998
vt 0.079666 0.545955
vt 0.079666 0.521747
vt 0.086937 0.521747
vt 0.086937 0.545955
vt 0.079666 0.513666
vt 0.086937 0.513666
vt 0.086937 0.570163
vt 0.079666 0.570163
vt 0.086937 0.578243
vt 0.079666 0.578243
vt 0.075902 0.521747
vt 0.075902 0.545955
vt 0.068632 0.545955
vt 0.068632 0.521747
vt 0.075902 0.570162
vt 0.068632 0.570162
vt 0.068632 0.513666
vt 0.075902 0.513666
vt 0.075902 0.578243
vt 0.068632 0.578243
vt 0.627258 0.513666
vt 0.627258 0.999002
vt 0.624996 0.999002
vt 0.624996 0.513666
vt 0.621232 0.513666
vt 0.621232 0.999002
vt 0.618970 0.999002
vt 0.618970 0.513666
vt 0.331763 0.513666
vt 0.334025 0.513666
vt 0.334025 0.999002
vt 0.331763 0.999002
vt 0.325737 0.513666
vt 0.327999 0.513666
vt 0.327999 0.999002
vt 0.325737 0.999002
vn 0.000000 -0.310392 0.950609
vn 0.000000 -0.310392 0.950609
vn 0.000000 -0.310392 0.950609
vn 0.000000 -0.310392 0.950609
vn 0.000000 1.000000 0.000000
vn 0.000000 1.000000 0.000000
vn 0.000000 1.000000 0.000000
vn 0.000000 1.000000 0.000000
vn 0.000000 0.310392 -0.950609
vn 0.000000 0.310392 -0.950609
vn 0.000000 0.310392 -0.950609
vn 0.000000 0.310392 -0.950609
vn 0.000000 -1.000000 0.000000
vn 0.000000 -1.000000 0.000000
vn 0.000000 -1.000000 0.000000
vn 0.000000 -1.000000 0.000000
vn 1.000000 0.000000 0.000000
vn 1.000000 0.000000 0.000000
vn 1.000000 0.000000 0.000000
vn 1.000000 0.000000 0.000000
vn 0.000000 0.000000 -1.000000
vn 0.000000 0.000000 -1.000000
vn 0.000000 0.000000 -1.000000
vn 0.000000 0.000000 -1.000000
vn 1.000000 0.000000 0.000000
vn 1.000000 0.000000 0.000000
vn 1.000000 0.000000 0.000000
vn 1.000000 0.000000 0.000000
vn 0.000000 0.000000 1.000000
vn 0.000000 0.000000 1.000000
vn 0.000000 0.000000 1.000000
vn 0.000000 0.000000 1.000000
vn 0.000000 1.000000 0.000000
vn 0.000000 1.000000 0.000000
vn 0.000000 1.000000 0.000000
vn 0.000000 1.000000 0.000000
vn 1.000000 0.000000 0.000000
vn 1.000000 0.000000 0.000000
vn 1.000000 0.000000 0.000000
vn 1.000000 0.000000 0.000000
vn 0.000000 -1.000000 0.000000
vn 0.000000 -1.000000 0.000000
vn 0.000000 -1.000000 0.000000
vn 0.000000 -1.000000 0.000000
vn 0.000000 1.000000 0.000000
vn 0.000000 1.000000 0.000000
vn 0.000000 1.000000 0.000000
vn 0.000000 1.000000 0.000000
vn 0.000000 -1.000000 0.000000
vn 0.000000 -1.000000 0.000000
vn 0.000000 -1.000000 0.000000
vn 0.000000 -1.000000 0.000000
vn 1.000000 0.000000 0.000000
vn 1.000000 0.000000 0.000000
vn 1.000000 0.000000 0.000000
vn 1.000000 0.000000 0.000000
vn 0.000000 1.000000 0.000000
vn 0.000000 1.000000 0.000000
vn 0.000000 1.000000 0.000000
vn 0.000000 1.000000 0.000000
vn 0.000000 -1.000000 0.000000
vn 0.000000 -1.000000 0.000000
vn 0.000000 -1.000000 0.000000
vn 0.000000 -1.000000 0.000000
vn 0.000000 -1.000000 0.000000
vn 0.000000 -1.000000 0.000000
vn 0.000000 -1.000000 0.000000
vn 0.000000 -1.000000 0.000000
vn 0.000000 0.000000 -1.000000
vn 0.000000 0.000000 -1.000000
vn 0.000000 0.000000 -1.000000
vn 0.000000 0.000000 -1.000000
vn 0.000000 1.000000 0.000000
vn 0.000000 1.000000 0.000000
vn 0.000000 1.000000 0.000000
vn 0.000000 1.000000 0.000000
vn 0.000000 1.000000 0.000000
vn 0.000000 1.000000 0.000000
vn 0.000000 1.000000 0.000000
vn 0.000000 1.000000 0.000000
vn 0.000000 0.000000 1.000000
vn 0.000000 0.000000 1.000000
vn 0.000000 0.000000 1.000000
vn 0.000000 0.000000 1.000000
vn 0.000000 -1.000000 0.000000
vn 0.000000 -1.000000 0.000000
vn 0.000000 -1.000000 0.000000
vn 0.000000 -1.000000 0.000000
vn 1.000000 -0.000000 0.000000
vn 1.000000 -0.000000 0.000000
vn 1.000000 -0.000000 0.000000
vn 1.000000 -0.000000 0.000000
vn 1.000000 0.000000 0.000000
vn 1.000000 0.000000 0.000000
vn 1.000000 0.000000 0.000000
vn 1.000000 0.000000 0.000000
vn 1.000000 -0.000000 0.000000
vn 1.000000 -0.000000 0.000000
vn 1.000000 -0.000000 0.000000
vn 1.000000 -0.000000 0.000000
vn 1.000000 0.000000 0.000000
vn 1.000000 0.000000 0.000000
vn 1.000000 0.000000 0.000000
vn 1.000000 0.000000 0.000000
vn 0.000000 1.000000 0.000000
vn 0.000000 1.000000 0.000000
vn 0.000000 1.000000 0.000000
vn 0.000000 1.000000 0.000000
vn 0.000000 -0.306419 0.951897
vn 0.000000 -0.306419 0.951897
vn 0.000000 -0.306419 0.951897
vn 0.000000 -0.306419 0.951897
vn 0.000000 -1.000000 0.000000
vn 0.000000 -1.000000 0.000000
vn 0.000000 -1.000000 0.000000
vn 0.000000 -1.000000 0.000000
vn 0.000000 0.314348 -0.949308
vn 0.000000 0.314348 -0.949308
vn 0.000000 0.314348 -0.949308
vn 0.000000 0.314348 -0.949308
vn 0.000000 -0.310392 0.950609
vn 0.000000 -0.310392 0.950609
vn 0.000000 -0.310392 0.950609
vn 0.000000 -0.310392 0.950609
vn 0.000000 1.000000 0.000000
vn 0.000000 1.000000 0.000000
vn 0.000000 1.000000 0.000000
vn 0.000000 1.000000 0.000000
vn 0.000000 0.310392 -0.950609
vn 0.000000 0.310392 -0.950609
vn 0.000000 0.310392 -0.950609
vn 0.000000 0.310392 -0.950609
vn 0.000000 -1.000000 0.000000
vn 0.000000 -1.000000 0.000000
vn 0.000000 -1.000000 0.000000
vn 0.000000 -1.000000 0.000000
vn -1.000000 0.000000 0.000000
vn -1.000000 0.000000 0.000000
vn -1.000000 0.000000 0.000000
vn -1.000000 0.000000 0.000000
vn 0.000000 0.000000 -1.000000
vn 0.000000 0.000000 -1.000000
vn 0.000000 0.000000 -1.000000
vn 0.000000 0.000000 -1.000000
vn -1.000000 0.000000 0.000000
vn -1.000000 0.000000 0.000000
vn -1.000000 0.000000 0.000000
vn -1.000000 0.000000 0.000000
vn 0.000000 0.000000 1.000000
vn 0.000000 0.000000 1.000000
vn 0.000000 0.000000 1.000000
vn 0.000000 0.000000 1.000000
vn 0.000000 1.000000 0.000000
vn 0.000000 1.000000 0.000000
vn 0.000000 1.000000 0.000000
vn 0.000000 1.000000 0.000000
vn -1.000000 0.000000 0.000000
vn -1.000000 0.000000 0.000000
vn -1.000000 0.000000 0.000000
vn -1.000000 0.000000 0.000000
vn 0.000000 -1.000000 0.000000
vn 0.000000 -1.000000 0.000000
vn 0.000000 -1.000000 0.000000
vn 0.000000 -1.000000 0.000000
vn 0.000000 1.000000 0.000000
vn 0.000000 1.000000 0.000000
vn 0.000000 1.000000 0.000000
vn 0.000000 1.000000 0.000000
vn 0.000000 -1.000000 0.000000
vn 0.000000 -1.000000 0.000000
vn 0.000000 -1.000000 0.000000
vn 0.000000 -1.000000 0.000000
vn -1.000000 0.000000 0.000000
vn -1.000000 0.000000 0.000000
vn -1.000000 0.000000 0.000000
vn -1.000000 0.000000 0.000000
vn 0.000000 1.000000 0.000000
vn 0.000000 1.000000 0.000000
vn 0.000000 1.000000 0.000000
vn 0.000000 1.000000 0.000000
vn 0.000000 -1.000000 0.000000
vn 0.000000 -1.000000 0.000000
vn 0.000000 -1.000000 0.000000
vn 0.000000 -1.000000 0.000000
vn 0.000000 -1.000000 0.000000
vn 0.000000 -1.000000 0.000000
vn 0.000000 -1.000000 0.000000
vn 0.000000 -1.000000 0.000000
vn 0.000000 0.000000 -1.000000
vn 0.000000 0.000000 -1.000000
vn 0.000000 0.000000 -1.000000
vn 0.000000 0.000000 -1.000000
vn 0.000000 1.000000 0.000000
vn 0.000000 1.000000 0.000000
vn 0.000000 1.000000 0.000000
vn 0.000000 1.000000 0.000000
vn 0.000000 1.000000 0.000000
vn 0.000000 1.000000 0.000000
vn 0.000000 1.000000 0.000000
vn 0.000000 1.000000 0.000000
vn 0.000000 0.000000 1.000000
vn 0.000000 0.000000 1.000000
vn 0.000000 0.000000 1.000000
vn 0.000000 0.000000 1.000000
vn 0.000000 -1.000000 0.000000
vn 0.000000 -1.000000 0.000000
vn 0.000000 -1.000000 0.000000
vn 0.000000 -1.000000 0.000000
vn -1.000000 0.000000 0.000000
vn -1.000000 0.000000 0.000000
vn -1.000000 0.000000 0.000000
vn -1.000000 0.000000 0.000000
vn -1.000000 0.000000 0.000000
vn -1.000000 0.000000 0.000000
vn -1.000000 0.000000 0.000000
vn -1.000000 0.000000 0.000000
vn -1.000000 0.000000 0.000000
vn -1.000000 0.000000 0.000000
vn -1.000000 0.000000 0.000000
vn -1.000000 0.000000 0.000000
vn -1.000000 0.000000 0.000000
vn -1.000000 0.000000 0.000000
vn -1.000000 0.000000 0.000000
vn -1.000000 0.000000 0.000000
vn 0.000000 1.000000 0.000000
vn 0.000000 1.000000 0.000000
vn 0.000000 1.000000 0.000000
vn 0.000000 1.000000 0.000000
vn 0.000000 -0.306419 0.951897
vn 0.000000 -0.306419 0.951897
vn 0.000000 -0.306419 0.951897
vn 0.000000 -0.306419 0.951897
vn 0.000000 -1.000000 0.000000
vn 0.000000 -1.000000 0.000000
vn 0.000000 -1.000000 0.000000
vn 0.000000 -1.000000 0.000000
vn 0.000000 0.314348 -0.949308
vn 0.000000 0.314348 -0.949308
vn 0.000000 0.314348 -0.949308
vn 0.000000 0.314348 -0.949308
s off
g Magazine
usemtl lambert4SG
f 1/103/1 2/104/2 4/105/3 3/106/4
f 3/41/5 4/42/6 6/43/7 5/44/8
f 5/109/9 6/110/10 8/111/11 7/112/12
f 9/47/13 10/48/14 11/49/15 12/50/16
f 34/1/17 33/2/18 35/3/19 36/4/20
f 13/115/21 14/116/22 15/117/23 16/118/24
f 21/5/25 22/6/26 23/7/27 24/8/28
f 18/125/29 17/126/30 19/127/31 20/128/32
f 7/67/33 8/68/34 14/69/35 13/70/36
f 21/5/37 24/8/38 25/11/39 26/12/40
f 10/48/41 9/47/42 16/51/43 15/52/44
f 2/75/45 1/83/46 17/84/47 18/79/48
f 12/50/49 11/49/50 20/55/51 19/56/52
f 23/7/53 22/6/54 27/9/55 28/10/56
f 8/68/57 2/75/58 22/76/59 21/71/60
f 11/49/61 10/48/62 24/53/63 23/54/64
f 10/48/65 15/52/66 25/60/67 24/53/68
f 15/117/69 14/116/70 26/119/71 25/120/72
f 14/69/73 8/68/74 21/71/75 26/72/76
f 2/75/77 18/79/78 27/80/79 22/76/80
f 18/125/81 20/128/82 28/131/83 27/132/84
f 20/55/85 11/49/86 23/54/87 28/61/88
f 2/13/89 8/14/90 29/15/91 30/16/92
f 8/14/93 6/17/94 31/18/95 29/15/96
f 6/17/97 4/19/98 32/20/99 31/18/100
f 4/19/101 2/13/102 30/16/103 32/20/104
f 30/87/105 29/88/106 33/89/107 34/90/108
f 29/135/109 31/136/110 35/137/111 33/138/112
f 31/91/113 32/92/114 36/93/115 35/94/116
f 32/139/117 30/140/118 34/141/119 36/142/120
f 1/103/121 3/106/122 38/107/123 37/108/124
f 3/41/125 5/44/126 39/45/127 38/46/128
f 5/109/129 7/112/130 40/113/131 39/114/132
f 9/47/133 12/50/134 42/57/135 41/58/136
f 60/21/137 62/22/138 61/23/139 59/24/140
f 13/115/141 16/118/142 44/121/143 43/122/144
f 47/25/145 50/26/146 49/27/147 48/28/148
f 45/129/149 46/130/150 19/127/151 17/126/152
f 7/67/153 13/70/154 43/73/155 40/74/156
f 47/25/157 52/29/158 51/30/159 50/26/160
f 41/58/161 44/59/162 16/51/163 9/47/164
f 37/82/165 45/86/166 17/84/167 1/83/168
f 12/50/169 19/56/170 46/62/171 42/57/172
f 49/27/173 54/31/174 53/32/175 48/28/176
f 40/74/177 47/78/178 48/81/179 37/82/180
f 42/57/181 49/63/182 50/64/183 41/58/184
f 41/58/185 50/64/186 51/65/187 44/59/188
f 44/121/189 51/123/190 52/124/191 43/122/192
f 43/73/193 52/77/194 47/78/195 40/74/196
f 37/82/197 48/81/198 53/85/199 45/86/200
f 45/129/201 53/133/202 54/134/203 46/130/204
f 46/62/205 54/66/206 49/63/207 42/57/208
f 37/33/209 56/34/210 55/35/211 40/36/212
f 40/36/213 55/35/214 57/39/215 39/40/216
f 39/40/217 57/39/218 58/38/219 38/37/220
f 38/37/221 58/38/222 56/34/223 37/33/224
f 56/95/225 60/96/226 59/97/227 55/98/228
f 55/143/229 59/144/230 61/145/231 57/146/232
f 57/99/233 61/100/234 62/101/235 58/102/236
f 58/147/237 62/148/238 60/149/239 56/150/240
